# xmcd
#
# Track frame offsets: 
#        150
#        19062
#        39845
#        61887
#        77985
#        98391
#        114383
#        129980
#        147593
#        162075
#        181469
#        195642
#
# Disc length: 2806 seconds
#
# Revision: 0
# Processed by: cddbd v1.5.2PL0 Copyright (c) Steve Scherf et al.
# Submitted via: ExactAudioCopy v0.99pb4
#
DISCID=940af40c
DTITLE=MIA. - WILLKOMMEN IM CLUB
DYEAR=2008
DGENRE=Pop
TTITLE0=Kapitän
TTITLE1=Mein Freund
TTITLE2=Mausen
TTITLE3=Du
TTITLE4=100%
TTITLE5=Magisch
TTITLE6=Deinetwegen
TTITLE7=Verfolger
TTITLE8=Glücksstern
TTITLE9=Halt Still
TTITLE10=Die Aussicht
TTITLE11=Glücksstern [ electronic version ]
EXTD=
EXTT0=
EXTT1=
EXTT2=
EXTT3=
EXTT4=
EXTT5=
EXTT6=
EXTT7=
EXTT8=
EXTT9=
EXTT10=
EXTT11=
PLAYORDER=
